<svg width="18" height="18" viewBox="0 0 18 18" fill="none" xmlns="http://www.w3.org/2000/svg">
<path d="M17.3333 8.33333C17.7015 8.33333 18 8.6318 18 9C18 9.3682 17.7015 9.66667 17.3333 9.66667L15 9.66667C14.6318 9.66667 14.3333 9.3682 14.3333 9C14.3333 8.6318 14.6318 8.33333 15 8.33333L17.3333 8.33333Z" fill="#9C9C9C"/>
<path fill-rule="evenodd" clip-rule="evenodd" d="M9 13C6.79087 13 5 11.2091 5 9C5 6.79086 6.79087 5 9 5C11.2091 5 13 6.79086 13 9C13 11.2091 11.2091 13 9 13ZM9 6.37445C7.54993 6.37445 6.37447 7.54995 6.37447 9C6.37447 10.4501 7.54993 11.6255 9 11.6255C10.4501 11.6255 11.6256 10.4501 11.6256 9C11.6256 7.54995 10.4501 6.37445 9 6.37445Z" fill="#9C9C9C"/>
<path d="M15.364 15.364C15.6243 15.1036 15.6243 14.6815 15.364 14.4212L13.714 12.7712C13.4537 12.5109 13.0316 12.5109 12.7712 12.7712C12.5109 13.0316 12.5109 13.4537 12.7712 13.7141L14.4212 15.364C14.6815 15.6243 15.1036 15.6243 15.364 15.364Z" fill="#9C9C9C"/>
<path d="M8.33333 0.666666C8.33333 0.298476 8.6318 -4.09497e-07 9 -3.93402e-07C9.3682 -3.77308e-07 9.66667 0.298476 9.66667 0.666666L9.66667 3C9.66667 3.36819 9.3682 3.66667 9 3.66667C8.6318 3.66667 8.33333 3.36819 8.33333 3L8.33333 0.666666Z" fill="#9C9C9C"/>
<path d="M15.364 2.63604C15.1036 2.37569 14.6815 2.37569 14.4212 2.63604L12.7712 4.28596C12.5109 4.54631 12.5109 4.96842 12.7712 5.22877C13.0316 5.48912 13.4537 5.48912 13.714 5.22877L15.364 3.57885C15.6243 3.3185 15.6243 2.89639 15.364 2.63604Z" fill="#9C9C9C"/>
<path d="M3 8.33333C3.3682 8.33333 3.66667 8.6318 3.66667 9C3.66667 9.3682 3.3682 9.66667 3 9.66667L0.666666 9.66667C0.298466 9.66667 -4.09497e-07 9.3682 -3.93402e-07 9C-3.77308e-07 8.6318 0.298466 8.33333 0.666666 8.33333L3 8.33333Z" fill="#9C9C9C"/>
<path d="M5.22873 5.22877C5.48913 4.96842 5.48913 4.54631 5.22873 4.28596L3.57883 2.63605C3.31849 2.37569 2.89636 2.37569 2.63603 2.63605C2.37569 2.89639 2.37569 3.31851 2.63603 3.57885L4.28593 5.22877C4.54633 5.48912 4.9684 5.48912 5.22873 5.22877Z" fill="#9C9C9C"/>
<path d="M8.33333 15C8.33333 14.6318 8.6318 14.3333 9 14.3333C9.3682 14.3333 9.66667 14.6318 9.66667 15L9.66667 17.3333C9.66667 17.7015 9.3682 18 9 18C8.6318 18 8.33333 17.7015 8.33333 17.3333L8.33333 15Z" fill="#9C9C9C"/>
<path d="M5.22873 12.7712C4.9684 12.5109 4.54633 12.5109 4.28593 12.7712L2.63603 14.4212C2.37569 14.6815 2.37569 15.1036 2.63603 15.364C2.89636 15.6243 3.31849 15.6243 3.57883 15.364L5.22873 13.7141C5.48913 13.4537 5.48913 13.0316 5.22873 12.7712Z" fill="#9C9C9C"/>
</svg>
