<svg width="76" height="76" viewBox="0 0 76 76" fill="none" xmlns="http://www.w3.org/2000/svg">
<path fill-rule="evenodd" clip-rule="evenodd" d="M31.7222 15.85L31.6983 31.7L24.9247 19.6646C21.1992 13.0451 17.9343 7.2477 17.6693 6.7814L17.1877 5.93364L16.1985 6.51938C15.6546 6.84155 15.1778 7.13749 15.1391 7.17694C15.1003 7.2165 18.4769 13.3034 22.6424 20.7036C26.808 28.1038 30.2013 34.1738 30.183 34.1926C30.1646 34.2114 24.4598 30.8565 17.5055 26.7374C10.5512 22.6183 4.79691 19.2228 4.71825 19.1917C4.61382 19.1506 4.41814 19.4115 3.99332 20.1584C3.6733 20.7211 3.41166 21.2154 3.41185 21.257C3.41204 21.2985 9.24774 24.7875 16.38 29.0102L29.3477 36.688L14.6739 36.7126L0 36.7372V38V39.2628L14.7913 39.2874L29.5826 39.312L16.6484 46.9722C9.53459 51.1852 3.63947 54.6883 3.54812 54.7568C3.39489 54.8717 3.42834 54.9645 3.98356 55.9629L4.58502 57.0444L5.15909 56.7129C5.47484 56.5306 11.2332 53.1229 17.9554 49.1403C24.6776 45.1577 30.1901 41.9119 30.2052 41.9274C30.2203 41.943 26.8368 47.9865 22.6863 55.3576C18.5358 62.7287 15.1235 68.8033 15.1036 68.8568C15.0543 68.9893 17.1463 70.2162 17.2384 70.1087C17.2786 70.0616 20.5203 64.3157 24.4421 57.3402C28.3639 50.3646 31.6115 44.6157 31.6591 44.565C31.7113 44.5093 31.7456 50.7282 31.7456 60.2363V76H32.9776H34.2095V38V0H32.9778H31.7462L31.7222 15.85ZM41.7905 38V76H43.0224H44.2544V60.2363C44.2544 50.7291 44.2887 44.5093 44.3409 44.565C44.3885 44.6157 47.636 50.3646 51.5577 57.3402C55.4793 64.3157 58.7211 70.0616 58.7615 70.1087C58.8537 70.2162 60.9458 68.9893 60.8964 68.8568C60.8765 68.8033 57.4642 62.7287 53.3137 55.3576C49.1632 47.9865 45.7799 41.9427 45.7953 41.9269C45.8108 41.9111 51.3231 45.1569 58.045 49.1398C64.7671 53.1227 70.5252 56.5307 70.8409 56.713L71.415 57.0444L72.0164 55.9629C72.5676 54.9717 72.6043 54.871 72.4544 54.7588C72.3645 54.6913 66.4695 51.1882 59.3543 46.9741L46.4176 39.312L61.2088 39.2874L76 39.2628V38V36.7372L61.3261 36.7126L46.6523 36.688L59.62 29.0102C66.7523 24.7875 72.588 21.2985 72.5882 21.257C72.5883 21.2154 72.3267 20.7211 72.0067 20.1584C71.589 19.4241 71.3853 19.151 71.2848 19.1906C71.2077 19.2209 65.4534 22.6163 58.4974 26.7361C51.5414 30.8557 45.835 34.211 45.8166 34.1922C45.7983 34.1734 49.1915 28.1033 53.3571 20.7032C57.5227 13.303 60.8993 7.21611 60.8607 7.17675C60.8221 7.13739 60.3454 6.84155 59.8015 6.51938L58.8123 5.93364L58.3305 6.7814C58.0653 7.2477 54.8005 13.0452 51.0751 19.6647L44.3017 31.7002L44.2778 15.8501L44.2538 0H43.0222H41.7905V38Z" fill="black"/>
</svg>
