<svg width="1218" height="175" viewBox="0 0 1218 175" fill="none" xmlns="http://www.w3.org/2000/svg">
<path fill-rule="evenodd" clip-rule="evenodd" d="M609.165 41.8017C645.306 40.0457 691.49 49.3381 695.13 76.5045C697.37 93.202 681.09 103.548 660.904 111.107C654.359 113.561 640.986 118.2 641.656 123.759C649.471 131.482 683.367 114.353 691.121 128.891C703.301 151.731 665.223 163.832 639.745 171.093C607.514 178.328 553.397 175.801 526.166 161.112C511.116 152.973 501.617 141.309 499.727 128.652C494.513 91.2443 540.731 47.0548 600.415 42.367C602.63 42.1927 604.898 42.066 607.124 41.9384C607.802 41.8803 608.483 41.8349 609.165 41.8017ZM655.54 69.4766C645.531 70.5705 638.738 71.7041 631.127 76.799C619.835 84.3595 626.268 89.8042 639.439 91.7065C651.156 89.7223 667.587 84.5994 668.14 74.898C665.852 70.836 661.616 69.8515 655.54 69.4766Z" fill="#E5E2D3"/>
<path fill-rule="evenodd" clip-rule="evenodd" d="M1129.89 41.9437C1135.97 41.6225 1142.07 41.5408 1148.16 41.6992C1183.12 42.7647 1220.28 55.837 1217.89 81.3817C1217.26 91.5516 1209.5 98.241 1198.41 104.626C1191.07 108.849 1164.51 116.925 1164.05 123.104C1170.51 132.295 1205.85 114.321 1213.75 128.455C1226.3 150.88 1189.37 163.806 1163.44 170.866C1151.88 173.853 1135.32 174.829 1122.92 174.779C1096.77 174.672 1069.7 172.289 1048.9 161.078C1033.69 152.752 1024.14 140.873 1022.33 128.013C1017.14 91.4687 1064.58 46.8061 1122.75 42.4143C1125.11 42.2357 1127.52 42.0831 1129.89 41.9437ZM1181.43 75.0348C1161.88 77.2645 1134.87 90.8212 1166.98 97.2646C1178 95.2519 1195.45 89.3236 1194.93 79.975C1191.93 76.1184 1187.58 75.2294 1181.43 75.0348Z" fill="#E5E2D3"/>
<path fill-rule="evenodd" clip-rule="evenodd" d="M311.29 42.1382C399.819 39.0983 394.093 119.212 347.509 148.308C318.302 166.548 298.343 173.199 257.889 174.539C240.167 174.618 221.425 171.469 207.757 164.038C164.402 140.467 184.157 99.6825 215.169 75.6369C239.059 57.1136 267.911 44.8838 304.678 42.4274C306.881 42.3133 309.085 42.2161 311.29 42.1382ZM337.08 72.2557C331.091 72.8392 325.537 73.285 320.338 75.4476C309.864 79.8075 295.621 90.6918 310.534 97.3041C313.9 98.8231 317.806 99.7647 321.882 100.044C349.954 95.1972 373.032 73.1078 337.08 72.2557Z" fill="#E5E2D3"/>
<path d="M985.779 0.205132C1001.02 -0.233361 1012.53 1.01579 1023.59 8.58702C1041.44 18.3504 1019.69 37.1535 1024 45.7271C1030.96 59.5584 1055.71 65.1096 1032.89 83.0354C1021.72 91.8029 999.767 92.5981 988.144 100.788C974.671 110.284 967.114 126.322 959.146 138.133C947.562 155.691 944.165 163.726 916.463 171.476C914.882 171.709 913.284 171.91 911.687 172.081C901.211 173.14 892.314 171.412 883.697 167.341C854.565 153.576 876.242 127.422 884.554 110.411C886.87 105.663 890.212 100.762 890.312 95.6004C890.814 86.1567 875.977 79.5847 874.83 70.3785C871.879 46.7417 906.684 48.7483 926.328 37.5818C937.093 31.4589 942.212 20.8039 951.028 13.4563C961.098 5.06365 969.478 1.71579 985.779 0.205132Z" fill="#E5E2D3"/>
<path d="M818.117 0.197245C832.676 -0.799552 846.101 1.95758 856.118 9.01821C873.149 19.8746 852.567 34.7802 855.571 45.4694C858.654 56.4601 880.599 60.1533 872.135 75.1662C862.133 92.9005 831.996 90.1106 816.703 103.167C803.605 114.355 796.978 130.521 787.81 143.181C777.243 158.331 772.646 165.186 748.047 171.45C746.587 171.718 745.087 171.919 743.582 172.052C733.137 173.019 724.142 171.576 715.862 167.546C679.449 149.822 719.726 117.21 721.898 95.5557C722.432 85.8084 708.095 80.0678 706.833 70.4626C703.677 46.4942 738.033 49.0266 757.99 37.6476C768.831 31.4647 774.3 20.5416 783.345 13.0882C793.323 4.86067 801.977 1.57851 818.117 0.197245Z" fill="#E5E2D3"/>
<path d="M117.923 44.3967C146.053 42.6603 196.116 48.5702 183.781 74.7955C174.217 95.1246 132.461 90.6996 108.978 97.9456C106.443 98.728 103.323 100.627 102.666 102.494C100.224 109.553 117.563 109.403 124.36 109.44C142.385 109.539 158.284 111.114 168.913 121.884C172.508 125.528 173.414 130.303 171.521 134.552C164.859 149.504 147.904 156.769 128.671 164.307C117.895 167.699 106.356 169.96 94.488 171.006C51.8563 174.504 5.33744 161.352 0.494052 130.753C-6.19894 88.4584 56.2638 49.2227 117.923 44.3967Z" fill="#E5E2D3"/>
<path d="M483.202 2.16389C508.81 0.400607 540.061 12.5205 532.243 31.2165C527.807 41.8246 522.986 51.0827 516.761 61.313C498.56 91.2281 479.264 120.92 456.488 149.499C448.454 159.584 438.049 165.81 421.548 169.57C420.016 169.805 418.47 170.002 416.914 170.157C399.236 171.815 372.999 164.815 371.19 151.899C368.848 135.173 380.479 118.688 390.462 103.714L410.248 74.0699C417.197 63.7235 424.043 53.3483 430.787 42.9454C441.74 26.4228 451.891 4.91651 483.202 2.16389Z" fill="#E5E2D3"/>
<path fill-rule="evenodd" clip-rule="evenodd" d="M1204.21 27.8222C1207.39 27.8224 1208.82 29.4463 1208.82 31.6425C1208.81 32.9597 1208.07 34.0408 1206.92 34.7502C1208.04 35.3246 1208.48 36.2039 1208.61 37.3189L1209.09 40.3924H1205.63L1205.26 37.6896C1205.14 36.6547 1204.68 36.0856 1203.87 35.9596L1203.5 35.9333H1201.43V40.3924H1198.04V27.8222H1204.21ZM1201.43 33.4329H1203.57C1204.72 33.4328 1205.36 33.0259 1205.36 31.9448C1205.36 30.9994 1204.87 30.5953 1203.97 30.5093L1203.57 30.4935H1201.43V33.4329Z" fill="#E5E2D3"/>
<path fill-rule="evenodd" clip-rule="evenodd" d="M1203.3 21.5385C1210.68 21.539 1216.34 26.7431 1216.34 34.1087C1216.34 41.4738 1210.68 46.6757 1203.3 46.6762C1195.94 46.6762 1190.29 41.4741 1190.29 34.1087C1190.29 26.7427 1195.94 21.5385 1203.3 21.5385ZM1203.3 25.1536C1197.98 25.1536 1194.18 28.6011 1194.18 34.1087C1194.18 39.6157 1197.98 43.0611 1203.3 43.0611C1208.61 43.0606 1212.4 39.6153 1212.41 34.1087C1212.41 28.6015 1208.61 25.1541 1203.3 25.1536Z" fill="#E5E2D3"/>
</svg>
