<svg width="342" height="49" viewBox="0 0 342 49" fill="none" xmlns="http://www.w3.org/2000/svg">
<path fill-rule="evenodd" clip-rule="evenodd" d="M171.046 11.7045C181.194 11.2128 194.162 13.8147 195.184 21.4213C195.813 26.0966 191.242 28.9935 185.574 31.1101C183.736 31.7971 179.981 33.0961 180.169 34.6525C182.364 36.815 191.881 32.0188 194.059 36.0896C197.479 42.4846 186.787 45.873 179.633 47.9059C170.583 49.9319 155.387 49.2242 147.741 45.1114C143.515 42.8324 140.848 39.5664 140.317 36.0226C138.853 25.5484 151.831 13.1754 168.589 11.8628C169.211 11.814 169.848 11.7785 170.473 11.7428C170.663 11.7265 170.855 11.7138 171.046 11.7045ZM184.068 19.4535C181.257 19.7597 179.35 20.0772 177.213 21.5037C174.042 23.6207 175.849 25.1452 179.547 25.6778C182.837 25.1222 187.451 23.6878 187.606 20.9715C186.963 19.8341 185.774 19.5584 184.068 19.4535Z" fill="#012D18"/>
<path fill-rule="evenodd" clip-rule="evenodd" d="M317.259 11.7442C318.966 11.6543 320.68 11.6314 322.389 11.6758C332.207 11.9741 342.641 15.6344 341.969 22.7869C341.793 25.6344 339.614 27.5075 336.499 29.2954C334.438 30.4777 326.981 32.739 326.85 34.4692C328.665 37.0427 338.588 32.0099 340.808 35.9674C344.331 42.2463 333.962 45.8658 326.68 47.8426C323.433 48.6789 318.784 48.9522 315.304 48.938C307.961 48.9082 300.36 48.2408 294.518 45.1018C290.247 42.7706 287.567 39.4444 287.058 35.8437C285.6 25.6112 298.922 13.1057 315.254 11.876C315.917 11.826 316.594 11.7833 317.259 11.7442ZM331.731 21.0097C326.244 21.634 318.659 25.4299 327.673 27.2341C330.769 26.6705 335.669 25.0106 335.522 22.393C334.68 21.3131 333.459 21.0642 331.731 21.0097Z" fill="#012D18"/>
<path fill-rule="evenodd" clip-rule="evenodd" d="M87.4067 11.7987C112.264 10.9475 110.657 33.3794 97.5765 41.5262C89.3753 46.6335 83.7712 48.4957 72.4123 48.871C67.4361 48.8931 62.1734 48.0112 58.3356 45.9308C46.162 39.3308 51.7092 27.9111 60.4169 21.1783C67.1249 15.9918 75.2261 12.5675 85.55 11.8797C86.1684 11.8477 86.7874 11.8205 87.4067 11.7987ZM94.6481 20.2316C92.9664 20.395 91.4071 20.5198 89.9473 21.1253C87.006 22.3461 83.0069 25.3937 87.1942 27.2451C88.1393 27.6705 89.2363 27.9341 90.3807 28.0122C98.2628 26.6552 104.743 20.4702 94.6481 20.2316Z" fill="#012D18"/>
<path d="M276.795 0.0574371C281.074 -0.0653412 284.307 0.284421 287.412 2.40437C292.425 5.1381 286.317 10.403 287.528 12.8036C289.482 16.6764 296.431 18.2307 290.022 23.2499C286.888 25.7048 280.723 25.9275 277.459 28.2206C273.676 30.8794 271.554 35.3701 269.317 38.6772C266.064 43.5935 265.11 45.8433 257.332 48.0134C256.888 48.0784 256.439 48.1349 255.991 48.1827C253.049 48.4792 250.551 47.9954 248.132 46.8554C239.952 43.0012 246.038 35.678 248.372 30.915C249.023 29.5857 249.961 28.2134 249.989 26.7681C250.13 24.1239 245.964 22.2837 245.642 19.706C244.813 13.0877 254.586 13.6495 260.102 10.5229C263.125 8.80849 264.562 5.82508 267.037 3.76776C269.865 1.41782 272.218 0.48042 276.795 0.0574371Z" fill="#012D18"/>
<path d="M229.718 0.0552286C233.806 -0.223874 237.575 0.548123 240.388 2.5251C245.17 5.56489 239.391 9.73847 240.234 12.7314C241.1 15.8088 247.262 16.8429 244.885 21.0465C242.077 26.0121 233.615 25.231 229.321 28.8868C225.643 32.0193 223.782 36.5459 221.208 40.0907C218.241 44.3326 216.95 46.2519 210.043 48.006C209.633 48.0811 209.212 48.1374 208.789 48.1746C205.856 48.4454 203.331 48.0412 201.006 46.9128C190.781 41.9501 202.091 32.8188 202.701 26.7556C202.85 24.0263 198.825 22.419 198.47 19.7295C197.584 13.0184 207.231 13.7274 212.835 10.5413C215.879 8.81011 217.414 5.75164 219.954 3.6647C222.756 1.36099 225.186 0.441982 229.718 0.0552286Z" fill="#012D18"/>
<path d="M33.1114 12.4311C41.0101 11.9449 55.067 13.5996 51.6035 20.9427C48.9182 26.6349 37.1936 25.3959 30.5997 27.4248C29.888 27.6438 29.012 28.1755 28.8273 28.6984C28.1417 30.675 33.0103 30.6329 34.9187 30.6433C39.9799 30.671 44.4442 31.112 47.4287 34.1277C48.4382 35.1479 48.6926 36.4848 48.1612 37.6745C46.2905 41.8612 41.5296 43.8954 36.1294 46.0058C33.1034 46.9557 29.8635 47.5889 26.5311 47.8816C14.5606 48.8612 1.49869 45.1786 0.138724 36.6108C-1.74059 24.7684 15.7982 13.7824 33.1114 12.4311Z" fill="#012D18"/>
<path d="M135.677 0.605888C142.868 0.11217 151.643 3.50573 149.447 8.74063C148.202 11.7109 146.848 14.3031 145.1 17.1676C139.99 25.5439 134.572 33.8575 128.176 41.8597C125.921 44.6835 122.999 46.4268 118.366 47.4797C117.935 47.5455 117.502 47.6006 117.065 47.6438C112.101 48.1082 104.734 46.1482 104.226 42.5318C103.568 37.8483 106.834 33.2327 109.637 29.0399L115.193 20.7396C117.144 17.8426 119.066 14.9375 120.96 12.0247C124.035 7.39837 126.886 1.37662 135.677 0.605888Z" fill="#012D18"/>
<path fill-rule="evenodd" clip-rule="evenodd" d="M338.128 7.79023C339.022 7.79026 339.421 8.24496 339.421 8.85989C339.421 9.22871 339.211 9.53143 338.888 9.73005C339.202 9.89088 339.326 10.1371 339.364 10.4493L339.497 11.3099H338.527L338.422 10.5531C338.389 10.2633 338.261 10.104 338.032 10.0687L337.928 10.0613H337.347V11.3099H336.396V7.79023H338.128ZM337.347 9.36123H337.947C338.27 9.3612 338.451 9.24726 338.451 8.94455C338.451 8.67982 338.313 8.56669 338.062 8.5426L337.947 8.53818H337.347V9.36123Z" fill="#012D18"/>
<path fill-rule="evenodd" clip-rule="evenodd" d="M337.871 6.03077C339.944 6.03092 341.533 7.48807 341.533 9.55042C341.533 11.6127 339.944 13.0692 337.871 13.0693C335.807 13.0693 334.219 11.6128 334.218 9.55042C334.218 7.48796 335.807 6.03077 337.871 6.03077ZM337.871 7.04301C336.378 7.04301 335.312 8.00831 335.312 9.55042C335.312 11.0924 336.378 12.0571 337.871 12.0571C339.364 12.057 340.429 11.0923 340.429 9.55042C340.429 8.00842 339.364 7.04315 337.871 7.04301Z" fill="#012D18"/>
</svg>
