<svg width="88" height="15" viewBox="0 0 88 15" fill="none" xmlns="http://www.w3.org/2000/svg">
<path fill-rule="evenodd" clip-rule="evenodd" d="M38.5674 2.99023C39.2088 2.99023 39.7816 3.1532 40.2852 3.47949C40.7887 3.80586 41.1844 4.27609 41.4707 4.89062C41.7604 5.50513 41.9052 6.24493 41.9053 7.10938C41.9053 7.97396 41.7619 8.71593 41.4756 9.33398C41.1893 9.94846 40.796 10.4226 40.2959 10.7559C39.7958 11.0857 39.2245 11.25 38.583 11.25C38.1003 11.25 37.7053 11.169 37.3984 11.0059C37.0949 10.8427 36.857 10.6514 36.6846 10.4326C36.5122 10.214 36.3793 10.0197 36.2861 9.84961H36.1934V14.0938H34.6465V3.09375H36.1572V4.39062H36.2861C36.3758 4.22401 36.5049 4.03114 36.6738 3.8125C36.8428 3.59378 37.0779 3.40341 37.3779 3.24023C37.6779 3.07361 38.0743 2.99028 38.5674 2.99023ZM38.2363 4.3125C37.7881 4.31256 37.409 4.42953 37.0986 4.66211C36.7917 4.89472 36.559 5.21916 36.4004 5.63574C36.2418 6.05233 36.1621 6.53833 36.1621 7.09375C36.1621 7.65625 36.2432 8.14963 36.4053 8.57324C36.5674 8.9968 36.8015 9.32879 37.1084 9.56836C37.4153 9.80441 37.7915 9.92181 38.2363 9.92188C38.6984 9.92188 39.0851 9.79915 39.3955 9.55273C39.7059 9.30277 39.9409 8.96412 40.0996 8.53711C40.2617 8.11003 40.3428 7.62847 40.3428 7.09375C40.3427 6.5661 40.2631 6.09193 40.1045 5.67188C39.9493 5.25186 39.7142 4.92074 39.4004 4.67773C39.09 4.43472 38.7019 4.3125 38.2363 4.3125Z" fill="black"/>
<path fill-rule="evenodd" clip-rule="evenodd" d="M67.4053 2.99023C67.7225 2.99025 68.0589 3.02812 68.4141 3.10449C68.7727 3.17741 69.1076 3.31284 69.418 3.51074C69.7317 3.7086 69.9885 3.99154 70.1885 4.35938C70.3885 4.72389 70.4882 5.19807 70.4883 5.78125V11.0938H68.9775V10H68.916C68.816 10.2013 68.6658 10.3994 68.4658 10.5938C68.2659 10.7881 68.0089 10.9497 67.6953 11.0781C67.3815 11.2066 67.0052 11.2714 66.5674 11.2715C66.0639 11.2715 65.6081 11.1777 65.2012 10.9902C64.7942 10.7993 64.4714 10.5232 64.2334 10.1621C63.9989 9.80107 63.8819 9.35815 63.8818 8.83398C63.8818 8.3826 63.9682 8.01042 64.1406 7.71875C64.3131 7.42725 64.5458 7.19644 64.8389 7.02637C65.132 6.85623 65.4601 6.72743 65.8223 6.64062C66.1842 6.5539 66.553 6.48848 66.9287 6.44336C67.4046 6.38781 67.7913 6.34234 68.0879 6.30762C68.3844 6.26943 68.5998 6.20829 68.7344 6.125C68.8689 6.04167 68.9365 5.90625 68.9365 5.71875V5.68262C68.9365 5.22776 68.809 4.875 68.5537 4.625C68.3019 4.3751 67.9258 4.25 67.4258 4.25C66.905 4.25 66.4944 4.36697 66.1943 4.59961C65.8978 4.82873 65.6929 5.08405 65.5791 5.36523L64.125 5.03125C64.2974 4.5454 64.5489 4.15301 64.8799 3.85449C65.2145 3.55241 65.5996 3.33366 66.0342 3.19824C66.4687 3.05938 66.9259 2.99023 67.4053 2.99023ZM68.9414 7.17773C68.8861 7.23316 68.7794 7.28547 68.6211 7.33398C68.4659 7.37912 68.2879 7.4184 68.0879 7.45312C67.8879 7.48437 67.6926 7.51422 67.5029 7.54199C67.3134 7.56627 67.1549 7.58715 67.0273 7.60449C66.7274 7.64267 66.4533 7.70667 66.2051 7.79688C65.9603 7.8871 65.7635 8.01751 65.6152 8.1875C65.4704 8.35417 65.3975 8.57671 65.3975 8.85449C65.3975 9.23991 65.5394 9.53158 65.8223 9.72949C66.1051 9.92383 66.4654 10.0215 66.9033 10.0215C67.331 10.0215 67.6965 9.93575 68 9.76562C68.3068 9.59557 68.5396 9.37372 68.6982 9.09961C68.8603 8.82193 68.9414 8.52483 68.9414 8.20898V7.17773Z" fill="black"/>
<path d="M27.54 2.99023C28.1435 2.99023 28.6819 3.10256 29.1543 3.32812C29.6267 3.55029 30.0081 3.86299 30.2979 4.26562C30.591 4.6684 30.7651 5.13954 30.8203 5.67773H29.3154C29.2327 5.30285 29.0426 4.97977 28.7461 4.70898C28.4529 4.43817 28.0596 4.30276 27.5664 4.30273C27.1353 4.30273 26.7578 4.41736 26.4336 4.64648C26.1128 4.87218 25.862 5.1951 25.6826 5.61523C25.5034 6.03173 25.4141 6.52464 25.4141 7.09375C25.4141 7.67706 25.5018 8.18089 25.6777 8.60449C25.8536 9.0281 26.1021 9.35623 26.4229 9.58887C26.7471 9.82151 27.1284 9.9375 27.5664 9.9375C27.8595 9.93748 28.1253 9.88399 28.3633 9.77637C28.6046 9.66526 28.8067 9.50753 28.9688 9.30273C29.1343 9.09787 29.2499 8.85069 29.3154 8.5625H30.8203C30.7651 9.07986 30.5977 9.54199 30.3184 9.94824C30.0391 10.3543 29.6651 10.6737 29.1963 10.9062C28.7306 11.1389 28.1834 11.2559 27.5557 11.2559C26.7867 11.2558 26.1246 11.0801 25.5693 10.7295C25.0175 10.3753 24.5935 9.88715 24.2969 9.26562C24.0003 8.64421 23.8516 7.93277 23.8516 7.13086C23.8516 6.31839 24.0031 5.60101 24.3066 4.97949C24.6102 4.35449 25.038 3.86632 25.5898 3.51562C26.1416 3.16503 26.7918 2.99029 27.54 2.99023Z" fill="black"/>
<path fill-rule="evenodd" clip-rule="evenodd" d="M49.126 2.99023C49.5743 2.99027 50.009 3.0646 50.4297 3.21387C50.8504 3.36318 51.228 3.5976 51.5625 3.91699C51.8971 4.23644 52.1613 4.6517 52.3545 5.16211C52.5475 5.66897 52.6436 6.28525 52.6436 7.01074V7.5625H46.9961C47.008 8.05027 47.1 8.46912 47.2734 8.81836C47.4631 9.19323 47.7275 9.47986 48.0654 9.67773C48.4033 9.87201 48.7984 9.96875 49.25 9.96875C49.5431 9.96873 49.8104 9.92707 50.0518 9.84375C50.2931 9.75697 50.5019 9.62901 50.6777 9.45898C50.8536 9.28885 50.9879 9.07813 51.0811 8.82812L52.5459 9.09375C52.4286 9.52775 52.2176 9.908 51.9141 10.2344C51.614 10.5573 51.2365 10.8097 50.7812 10.9902C50.3295 11.1673 49.8138 11.2559 49.2344 11.2559C48.4514 11.2559 47.7766 11.0868 47.2109 10.75C46.649 10.4098 46.2141 9.93272 45.9072 9.31836C45.6037 8.70038 45.4522 7.97621 45.4521 7.14648C45.4521 6.3271 45.6037 5.60446 45.9072 4.97949C46.2142 4.3545 46.642 3.86632 47.1904 3.51562C47.7423 3.16493 48.3879 2.99023 49.126 2.99023ZM49.1357 4.27637C48.7013 4.27641 48.3222 4.38439 47.998 4.59961C47.6773 4.8114 47.4288 5.0889 47.2529 5.43262C47.1016 5.73118 47.0166 6.05248 46.998 6.39648H51.1279C51.1279 5.98682 51.0454 5.62356 50.8799 5.30762C50.7143 4.98817 50.4807 4.73676 50.1807 4.55273C49.8841 4.36877 49.5358 4.27637 49.1357 4.27637Z" fill="black"/>
<path fill-rule="evenodd" clip-rule="evenodd" d="M73.4922 4.39062H73.585C73.6746 4.22402 73.8037 4.03113 73.9727 3.8125C74.1417 3.59378 74.3767 3.40341 74.6768 3.24023C74.9768 3.07361 75.3731 2.99027 75.8662 2.99023C76.5077 2.99023 77.0804 3.15318 77.584 3.47949C78.0874 3.8058 78.4823 4.27626 78.7686 4.89062C79.0582 5.50513 79.2041 6.24493 79.2041 7.10938C79.2041 7.97396 79.0607 8.71593 78.7744 9.33398C78.4881 9.94848 78.0948 10.4226 77.5947 10.7559C77.0946 11.0857 76.5234 11.25 75.8818 11.25C75.3991 11.25 75.0042 11.169 74.6973 11.0059C74.3938 10.8427 74.1559 10.6513 73.9834 10.4326C73.811 10.214 73.6781 10.0197 73.585 9.84961H73.4551V11.0938H71.9453V0.427734H73.4922V4.39062ZM75.5352 4.3125C75.0869 4.31254 74.7078 4.42953 74.3975 4.66211C74.0905 4.89472 73.8579 5.21915 73.6992 5.63574C73.5406 6.05233 73.461 6.53833 73.4609 7.09375C73.4609 7.65625 73.542 8.14963 73.7041 8.57324C73.8662 8.99681 74.1003 9.32879 74.4072 9.56836C74.7141 9.80442 75.0903 9.92183 75.5352 9.92188C75.9973 9.92188 76.3839 9.79918 76.6943 9.55273C77.0047 9.30276 77.2398 8.96413 77.3984 8.53711C77.5605 8.11003 77.6416 7.62847 77.6416 7.09375C77.6416 6.5661 77.5619 6.09193 77.4033 5.67188C77.2481 5.25185 77.013 4.92074 76.6992 4.67773C76.3888 4.43469 76.0008 4.3125 75.5352 4.3125Z" fill="black"/>
<path fill-rule="evenodd" clip-rule="evenodd" d="M3.77734 0.427734C4.60156 0.427773 5.28472 0.578815 5.82617 0.880859C6.3675 1.18292 6.77302 1.59594 7.04199 2.12012C7.31098 2.64092 7.44531 3.22814 7.44531 3.88086C7.44527 4.53698 7.30857 5.12715 7.03613 5.65137C6.76711 6.1721 6.3603 6.5851 5.81543 6.89062C5.27391 7.19271 4.59239 7.34375 3.77148 7.34375H1.59863V11.0938H0V0.427734H3.77734ZM1.59863 5.97949H3.62695C4.14769 5.97949 4.57033 5.88948 4.89453 5.70898C5.21864 5.52502 5.45663 5.27481 5.6084 4.95898C5.76012 4.6431 5.8359 4.28351 5.83594 3.88086C5.83594 3.47808 5.76016 3.12012 5.6084 2.80762C5.45666 2.49521 5.2172 2.25031 4.88965 2.07324C4.56546 1.89618 4.13755 1.80763 3.60645 1.80762H1.59863V5.97949Z" fill="black"/>
<path d="M12.4043 2.98438C12.5387 2.99132 12.6439 3.00033 12.7197 3.01074V4.5C12.6577 4.48265 12.5472 4.46418 12.3887 4.44336C12.23 4.41905 12.0708 4.40625 11.9121 4.40625C11.5467 4.40631 11.2207 4.48445 10.9346 4.64062C10.6518 4.79339 10.4273 5.00698 10.2617 5.28125C10.0962 5.55208 10.0137 5.86176 10.0137 6.20898V11.0938H8.4668V3.09375H9.96191V4.36523H10.0449C10.1898 3.93473 10.445 3.59613 10.8105 3.34961C11.1796 3.09962 11.5969 2.97462 12.0625 2.97461C12.1591 2.97461 12.2732 2.97743 12.4043 2.98438Z" fill="black"/>
<path d="M14.877 11.0938H13.3301V3.09375H14.877V11.0938Z" fill="black"/>
<path d="M20.1562 2.99023C20.6978 2.99023 21.1721 3.10482 21.5791 3.33398C21.986 3.55966 22.3022 3.89591 22.5264 4.34375C22.7506 4.79167 22.8623 5.34614 22.8623 6.00586V11.0938H21.3154V6.19336C21.3154 5.61361 21.1652 5.16036 20.8652 4.83398C20.5652 4.50417 20.1531 4.33891 19.6289 4.33887C19.2703 4.33887 18.9512 4.41709 18.6719 4.57324C18.396 4.72948 18.1768 4.9587 18.0146 5.26074C17.856 5.55928 17.7764 5.92028 17.7764 6.34375V11.0938H16.2295V3.09375H17.7148V4.39648H17.8125C17.9953 3.97287 18.2821 3.63194 18.6719 3.375C19.065 3.11825 19.5598 2.99026 20.1562 2.99023Z" fill="black"/>
<path d="M33.293 11.0938H31.7461V3.09375H33.293V11.0938Z" fill="black"/>
<path d="M44.457 11.0938H42.9092V0.427734H44.457V11.0938Z" fill="black"/>
<path d="M58.4814 9.70898H63.2832V11.0938H56.8828V0.427734H58.4814V9.70898Z" fill="black"/>
<path d="M82.332 1.08398H81.1729V4.26074H80.4131V1.08398H79.2539V0.427734H82.332V1.08398Z" fill="black"/>
<path d="M85.0176 3.14648L86.1143 0.427734H87.0352V4.26074H86.2744V1.79102L85.2246 4.26074H84.8105L83.7549 1.78516V4.26074H82.9941V0.427734H83.915L85.0176 3.14648Z" fill="black"/>
<path d="M14.1113 0C14.3802 4.77968e-05 14.6092 0.0925207 14.7988 0.276367C14.992 0.456923 15.0889 0.675673 15.0889 0.932617C15.0889 1.18609 14.992 1.40484 14.7988 1.58887C14.6092 1.76924 14.3802 1.85933 14.1113 1.85938C13.8423 1.85938 13.6111 1.76938 13.418 1.58887C13.2283 1.40484 13.1328 1.18609 13.1328 0.932617C13.1328 0.675673 13.2283 0.456923 13.418 0.276367C13.6111 0.0923852 13.8423 0 14.1113 0Z" fill="black"/>
<path d="M32.5273 0C32.7964 0 33.0261 0.0923396 33.2158 0.276367C33.409 0.456919 33.5059 0.675682 33.5059 0.932617C33.5059 1.18608 33.409 1.40484 33.2158 1.58887C33.0261 1.76942 32.7964 1.85938 32.5273 1.85938C32.2584 1.8593 32.0271 1.76935 31.834 1.58887C31.6444 1.40488 31.5498 1.186 31.5498 0.932617C31.5498 0.675768 31.6444 0.456884 31.834 0.276367C32.0271 0.0924144 32.2584 7.47544e-05 32.5273 0Z" fill="black"/>
</svg>
