<svg width="9" height="9" viewBox="0 0 9 9" fill="none" xmlns="http://www.w3.org/2000/svg">
<path opacity="0.5" fill-rule="evenodd" clip-rule="evenodd" d="M4.49999 0C4.875 0 5.20015 0.105131 5.50842 0.249014C5.79973 0.384984 6.12867 0.582077 6.49823 0.802229L6.49824 0.802218L7.00697 1.10526L7.007 1.10527C7.41419 1.34783 7.77648 1.56235 8.05652 1.77303C8.35244 1.99566 8.61842 2.25782 8.79558 2.6274C8.97293 2.99732 9.01039 3.36865 8.99777 3.73848C8.98585 4.08789 8.92494 4.50309 8.85781 4.96956L8.75544 5.68123L8.75543 5.68127C8.66898 6.28201 8.59458 6.80999 8.47864 7.2299C8.35636 7.67276 8.16334 8.09492 7.77642 8.4281L7.7764 8.42812C7.39014 8.7607 6.94387 8.88987 6.48745 8.94711C6.05365 9.00151 5.51796 9 4.90632 9H4.09367C3.48202 9 2.94634 9.00151 2.51253 8.94711C2.05613 8.88987 1.60986 8.76071 1.2236 8.42812C0.836663 8.09494 0.643619 7.67278 0.521341 7.2299C0.405401 6.80998 0.331009 6.282 0.244571 5.68126L0.14217 4.9696C0.0750494 4.50311 0.0141528 4.0879 0.0022303 3.73849C-0.0103885 3.36866 0.0270658 2.9973 0.204418 2.62736L0.212791 2.61012C0.389907 2.24963 0.652186 1.99218 0.943484 1.77303C1.22352 1.56235 1.58581 1.34784 1.993 1.10527L2.50173 0.802229C2.87131 0.582075 3.20026 0.384985 3.49157 0.249014C3.79983 0.105132 4.12499 9.2717e-07 4.49999 0ZM4.49999 1.65306C4.45098 1.65306 4.37223 1.66223 4.19075 1.74694C3.9923 1.83956 3.74563 1.98537 3.34772 2.22241L2.839 2.52545C2.40105 2.78633 2.12947 2.94942 1.93729 3.094C1.761 3.22663 1.7164 3.29741 1.69503 3.34198C1.67385 3.38616 1.64689 3.46406 1.65433 3.68212C1.66247 3.92059 1.70611 4.23192 1.77838 4.73415L1.88078 5.44582C1.97339 6.08946 2.03329 6.49477 2.11479 6.78995C2.18995 7.06217 2.2575 7.13694 2.30222 7.17544C2.34761 7.21453 2.4337 7.27121 2.71823 7.30689C3.02538 7.34541 3.43925 7.34694 4.09367 7.34694H4.90632C5.56073 7.34694 5.97461 7.34541 6.28176 7.30689C6.56629 7.27121 6.65238 7.21454 6.69779 7.17544C6.7425 7.13693 6.81005 7.06215 6.8852 6.78995C6.9667 6.49477 7.0266 6.08946 7.11922 5.44584L7.2216 4.73419L7.22161 4.73414C7.29389 4.23191 7.33753 3.92058 7.34567 3.68212C7.35311 3.46407 7.32614 3.38618 7.30496 3.342L7.30493 3.34195C7.28358 3.2974 7.239 3.22663 7.06271 3.094C6.87053 2.94941 6.59894 2.78634 6.16099 2.52545L5.65227 2.22242L5.65224 2.2224C5.25435 1.98537 5.00769 1.83956 4.80925 1.74694C4.62777 1.66223 4.54901 1.65306 4.49999 1.65306Z" fill="#A29E9E"/>
</svg>
