<svg width="12" height="12" viewBox="0 0 12 12" fill="none" xmlns="http://www.w3.org/2000/svg">
<path fill-rule="evenodd" clip-rule="evenodd" d="M5.1 0C7.91663 1.48479e-07 10.2 2.28334 10.2 5.1C10.2 6.29419 9.78952 7.39251 9.10199 8.2616L11.8236 10.9751C12.0583 11.2091 12.0589 11.589 11.8249 11.8236C11.5909 12.0583 11.211 12.0589 10.9764 11.8249L8.25249 9.1092C7.38484 9.79239 6.29002 10.2 5.1 10.2C2.28334 10.2 1.48443e-07 7.91663 0 5.1C0 2.28334 2.28334 0 5.1 0ZM5.1 1.19999C2.94608 1.19999 1.19999 2.94608 1.19999 5.1C1.19999 7.25389 2.94608 9 5.1 9C7.25389 9 9 7.25389 9 5.1C9 2.94608 7.25389 1.19999 5.1 1.19999Z" fill="black"/>
</svg>
